<svg height="100%" width="100%" id="svg" viewBox="0 0 1440 700" xmlns="http://www.w3.org/2000/svg" class="transition duration-300 ease-in-out delay-150"><defs><linearGradient id="gradient"><stop offset="5%" stop-color="#002bdc44"></stop><stop offset="95%" stop-color="#32ded444"></stop></linearGradient></defs><path d="M 0,700 C 0,700 0,140 0,140 C 69.50769230769234,121.04871794871795 139.01538461538468,102.09743589743589 222,109 C 304.9846153846153,115.90256410256411 401.44615384615383,148.65897435897438 487,148 C 572.5538461538462,147.34102564102562 647.1999999999999,113.26666666666667 727,104 C 806.8000000000001,94.73333333333333 891.7538461538463,110.27435897435898 970,110 C 1048.2461538461537,109.72564102564102 1119.7846153846153,93.63589743589745 1197,96 C 1274.2153846153847,98.36410256410255 1357.1076923076923,119.18205128205128 1440,140 C 1440,140 1440,700 1440,700 Z" stroke="none" stroke-width="0" fill="url(#gradient)" class="transition-all duration-300 ease-in-out delay-150"></path><defs><linearGradient id="gradient"><stop offset="5%" stop-color="#002bdc66"></stop><stop offset="95%" stop-color="#32ded466"></stop></linearGradient></defs><path d="M 0,700 C 0,700 0,280 0,280 C 102.7051282051282,269.28205128205127 205.4102564102564,258.56410256410254 273,264 C 340.5897435897436,269.43589743589746 373.06410256410254,291.02564102564105 454,306 C 534.9358974358975,320.97435897435895 664.3333333333334,329.3333333333333 763,311 C 861.6666666666666,292.6666666666667 929.6025641025642,247.6410256410256 987,240 C 1044.3974358974358,232.3589743589744 1091.2564102564102,262.1025641025641 1165,275 C 1238.7435897435898,287.8974358974359 1339.371794871795,283.94871794871796 1440,280 C 1440,280 1440,700 1440,700 Z" stroke="none" stroke-width="0" fill="url(#gradient)" class="transition-all duration-300 ease-in-out delay-150"></path><defs><linearGradient id="gradient"><stop offset="5%" stop-color="#002bdc88"></stop><stop offset="95%" stop-color="#32ded488"></stop></linearGradient></defs><path d="M 0,700 C 0,700 0,420 0,420 C 77.40512820512822,440.94871794871796 154.81025641025644,461.8974358974359 225,462 C 295.18974358974356,462.1025641025641 358.16410256410256,441.3589743589743 440,431 C 521.8358974358974,420.6410256410257 622.5333333333335,420.6666666666667 723,420 C 823.4666666666665,419.3333333333333 923.7025641025641,417.974358974359 995,413 C 1066.297435897436,408.025641025641 1108.6564102564103,399.43589743589746 1178,400 C 1247.3435897435897,400.56410256410254 1343.6717948717949,410.28205128205127 1440,420 C 1440,420 1440,700 1440,700 Z" stroke="none" stroke-width="0" fill="url(#gradient)" class="transition-all duration-300 ease-in-out delay-150"></path><defs><linearGradient id="gradient"><stop offset="5%" stop-color="#002bdcff"></stop><stop offset="95%" stop-color="#32ded4ff"></stop></linearGradient></defs><path d="M 0,700 C 0,700 0,560 0,560 C 85.05641025641029,582.9897435897436 170.11282051282058,605.9794871794873 260,607 C 349.8871794871794,608.0205128205127 444.60512820512815,587.0717948717949 511,570 C 577.3948717948718,552.9282051282051 615.4666666666667,539.7333333333333 696,543 C 776.5333333333333,546.2666666666667 899.5282051282052,565.9948717948719 999,563 C 1098.4717948717948,560.0051282051281 1174.4205128205128,534.2871794871795 1244,530 C 1313.5794871794872,525.7128205128205 1376.7897435897435,542.8564102564103 1440,560 C 1440,560 1440,700 1440,700 Z" stroke="none" stroke-width="0" fill="url(#gradient)" class="transition-all duration-300 ease-in-out delay-150"></path></svg>